<svg xmlns="http://www.w3.org/2000/svg" viewBox="0 0 200 95.6"><g fill="#FFF"><path d="M32.8 29.7L0 45l18.2 15.5zm2.8 2.7L29.2 46H42zm30.7 6.5c1.2-.4 2.2-1.1 3-2.1.7-1.1 1.1-2.1 1.1-3.4 0-1.7-.6-3.1-1.8-4.1s-3.1-1.5-5.7-1.5h-4.1v11.3h2c2.4.1 4.3.3 5.5-.2z"/><path d="M73.8 58.2C71.6 60.3 68.7 61 65 61H54.9V23.4h7.2c3 0 5.3.8 6.8 1.6 1.6.7 2.9 2 3.8 3.4.9 1.4 1.3 3.2 1.3 5 0 1.7-.4 3.2-1.2 4.6-.8 1.3-2 2.5-3.5 3.3 2 .7 3.4 1.4 4.5 2.3 1.1.9 1.9 2 2.4 3.2.5 1.1.8 2.2.8 3.5L96 0 37.4 27l16.1 34h-4.1l-5.9-12h-16l-5.8 12H20l40.1 34.5 14.1-37.7c-.2.2-.2.4-.4.4z"/><path d="M58.7 58h4.4c2.7 0 4.7-.2 6-.8 1.3-.5 2.2-1.3 3.1-2.5.8-1.1 1.1-2.3 1.1-3.7 0-1.7-.5-3.1-1.7-4.3-1.1-1.2-2.6-2.1-4.4-2.6-1.3-.3-3.4-.4-6.6-.4h-2l.1 14.3zm33.5-34.8h3.6v38.3h-3.6V23.2zm34.2 29.1l3 1.6c-1 1.9-2.1 3.5-3.4 4.7-1.3 1.2-2.7 2.1-4.3 2.7-1.6.6-3.4.9-5.5.9-4.5 0-8-1.5-10.6-4.4-2.5-3-3.8-6.3-3.8-10 0-3.5 1.1-6.6 3.2-9.4 2.7-3.5 6.4-5.2 11-5.2 4.7 0 8.5 1.8 11.3 5.4 2 2.5 3 5.7 3 9.4h-24.9c.1 3.2 1.1 5.8 3.1 7.9 2 2.1 4.4 3.1 7.3 3.1 1.4 0 2.8-.2 4.1-.7 1.3-.5 2.5-1.1 3.4-1.9 1-1 2-2.3 3.1-4.1zm0-7.4c-.5-1.9-1.2-3.4-2.1-4.5-.9-1.1-2.1-2-3.6-2.7-1.5-.7-3.1-1-4.7-1-2.7 0-5 .9-7 2.6-1.4 1.3-2.5 3.2-3.2 5.7h20.6zm38-11v27.6h-3.5v-4.7c-1.5 1.8-3.2 3.2-5 4.1-1.9.9-3.9 1.4-6.1 1.4-3.9 0-7.2-1.4-10-4.3-2.8-2.8-4.2-6.3-4.2-10.3 0-4 1.4-7.4 4.2-10.2 2.8-2.8 6.2-4.2 10.1-4.2 2.3 0 4.3.5 6.2 1.4 1.8 1 3.5 2.4 4.8 4.3v-5.1h3.5zm-14.2 2.7c-2 0-3.8.5-5.5 1.5-1.7 1-3 2.3-4 4.1-1 1.8-1.5 3.6-1.5 5.6 0 1.9.5 3.8 1.5 5.6 1 1.8 2.3 3.2 4 4.1 1.7 1 3.5 1.5 5.4 1.5 1.9 0 3.8-.5 5.5-1.5 1.7-1 3.1-2.3 4-4 .9-1.7 1.4-3.6 1.4-5.7 0-3.2-1.1-5.9-3.2-8-1.9-2.1-4.5-3.2-7.6-3.2zM200 23.2v38.3h-3.5v-4.7c-1.5 1.8-3.2 3.2-5 4.1-1.9.9-3.9 1.4-6.1 1.4-3.9 0-7.3-1.4-10-4.3-2.8-2.8-4.2-6.3-4.2-10.3 0-4 1.4-7.4 4.2-10.2 2.8-2.8 6.2-4.2 10.1-4.2 2.3 0 4.3.5 6.2 1.4 1.8 1 3.4 2.4 4.8 4.3V23.2h3.5zm-14.2 13.4c-2 0-3.8.5-5.5 1.5-1.7 1-3 2.3-4 4.1-1 1.8-1.5 3.6-1.5 5.6 0 1.9.5 3.8 1.5 5.6 1 1.8 2.3 3.2 4 4.1 1.7 1 3.5 1.5 5.4 1.5 1.9 0 3.8-.5 5.5-1.5 1.7-1 3.1-2.3 4-4 .9-1.7 1.4-3.6 1.4-5.7 0-3.2-1.1-5.9-3.2-8-1.9-2.1-4.5-3.2-7.6-3.2z"/></g></svg>