<?xml version="1.0" encoding="utf-8"?>
<!-- Generator: Adobe Illustrator 18.0.0, SVG Export Plug-In . SVG Version: 6.00 Build 0)  -->
<!DOCTYPE svg PUBLIC "-//W3C//DTD SVG 1.1//EN" "http://www.w3.org/Graphics/SVG/1.1/DTD/svg11.dtd">
<svg version="1.1" id="Layer_1" xmlns="http://www.w3.org/2000/svg" xmlns:xlink="http://www.w3.org/1999/xlink" x="0px" y="0px"
	 viewBox="0 0 172.5 59.3" enable-background="new 0 0 172.5 59.3" xml:space="preserve">
<g>
	<g>
		<path fill="#FFFFFF" d="M70.1,20.1h3v16.4H78v2.7h-7.9V20.1z"/>
		<path fill="#FFFFFF" d="M86.4,20.1h3v19.1h-3V20.1z"/>
		<path fill="#FFFFFF" d="M107,20.1v2.7l-5.7,13.7h5.7v2.7h-8.8v-2.7l5.7-13.7h-5.4v-2.7H107z"/>
		<path fill="#FFFFFF" d="M115.9,20.1h3v19.1h-3V20.1z"/>
		<path fill="#FFFFFF" d="M130.9,25.4L130.9,25.4l-0.1,13.8h-2.7V20.1h3.8l3,11.4h0.1V20.1h2.7v19.1h-3.1L130.9,25.4z"/>
		<path fill="#FFFFFF" d="M151.4,28.6h4.2v6.1c0,3.1-1.5,4.8-4.5,4.8s-4.5-1.7-4.5-4.8v-9.9c0-3.1,1.5-4.8,4.5-4.8s4.5,1.7,4.5,4.8
			v1.9h-2.8v-2c0-1.4-0.6-1.9-1.6-1.9c-1,0-1.6,0.5-1.6,1.9v10.3c0,1.4,0.6,1.9,1.6,1.9c1,0,1.6-0.5,1.6-1.9v-3.5h-1.4V28.6z"/>
	</g>
	<g>
		<path fill="#EC1A42" d="M172.5,52.8H6.2V6.5h166.3V52.8z M7.2,51.8h164.3V7.5H7.2V51.8z"/>
	</g>
	<rect y="0" fill="#EC1A42" width="59.3" height="59.3"/>
	<g>
		<path fill="#FFFFFF" d="M27.9,27.2h6.9v4.5h-6.9V41h8.6v4.5H22.9V13.8h13.6v4.5h-8.6V27.2z"/>
	</g>
</g>
</svg>
