<svg xmlns="http://www.w3.org/2000/svg" viewBox="0 0 172.5 59.3"><path d="M70.1 20.1h3v16.4H78v2.7h-7.9V20.1zm16.3 0h3v19.1h-3V20.1zm20.6 0v2.7l-5.7 13.7h5.7v2.7h-8.8v-2.7l5.7-13.7h-5.4v-2.7h8.5zm8.9 0h3v19.1h-3V20.1zm15 5.3l-.1 13.8h-2.7V20.1h3.8l3 11.4h.1V20.1h2.7v19.1h-3.1l-3.7-13.8zm20.5 3.2h4.2v6.1c0 3.1-1.5 4.8-4.5 4.8s-4.5-1.7-4.5-4.8v-9.9c0-3.1 1.5-4.8 4.5-4.8s4.5 1.7 4.5 4.8v1.9h-2.8v-2c0-1.4-.6-1.9-1.6-1.9s-1.6.5-1.6 1.9V35c0 1.4.6 1.9 1.6 1.9s1.6-.5 1.6-1.9v-3.5h-1.4v-2.9z" fill="#FFF"/><path fill="#EC1A42" d="M172.5 52.8H6.2V6.5h166.3v46.3zm-165.3-1h164.3V7.5H7.2v44.3z"/><path fill="#EC1A42" d="M0 0h59.3v59.3H0z"/><path fill="#FFF" d="M27.9 27.2h6.9v4.5h-6.9V41h8.6v4.5H22.9V13.8h13.6v4.5h-8.6v8.9z"/></svg>